<mxfile host="app.diagrams.net" modified="2022-11-23T03:14:14.252Z" agent="5.0 (X11; Linux x86_64) AppleWebKit/537.36 (KHTML, like Gecko) Chrome/107.0.0.0 Safari/537.36" etag="dub5b_pQnwpx1NRZN9Da" version="20.6.0" type="github">
  <diagram id="R2lEEEUBdFMjLlhIrx00" name="Page-1">
    <mxGraphModel dx="1422" dy="804" grid="1" gridSize="10" guides="1" tooltips="1" connect="1" arrows="1" fold="1" page="1" pageScale="1" pageWidth="850" pageHeight="1100" math="0" shadow="0" extFonts="Permanent Marker^https://fonts.googleapis.com/css?family=Permanent+Marker">
      <root>
        <mxCell id="0" />
        <mxCell id="1" parent="0" />
        <mxCell id="TlEoQkKG3fts3dp7izwv-1" value="POSTS" style="rounded=1;whiteSpace=wrap;html=1;fillColor=#3399FF;strokeWidth=3;" vertex="1" parent="1">
          <mxGeometry x="350" y="360" width="120" height="60" as="geometry" />
        </mxCell>
        <mxCell id="TlEoQkKG3fts3dp7izwv-2" value="USERS" style="rounded=1;whiteSpace=wrap;html=1;strokeColor=#000000;fillColor=#99CCFF;strokeWidth=2;" vertex="1" parent="1">
          <mxGeometry x="105" y="105" width="120" height="60" as="geometry" />
        </mxCell>
        <mxCell id="TlEoQkKG3fts3dp7izwv-3" value="COMMENTS" style="rounded=1;whiteSpace=wrap;html=1;fillColor=#99CCFF;strokeWidth=2;" vertex="1" parent="1">
          <mxGeometry x="615" y="105" width="120" height="60" as="geometry" />
        </mxCell>
        <mxCell id="TlEoQkKG3fts3dp7izwv-4" value="CATEGORIES" style="rounded=1;whiteSpace=wrap;html=1;fillColor=#99CCFF;strokeWidth=2;" vertex="1" parent="1">
          <mxGeometry x="105" y="570" width="120" height="60" as="geometry" />
        </mxCell>
        <mxCell id="TlEoQkKG3fts3dp7izwv-5" value="TAGS" style="rounded=1;whiteSpace=wrap;html=1;fillColor=#99CCFF;strokeWidth=2;" vertex="1" parent="1">
          <mxGeometry x="615" y="570" width="120" height="60" as="geometry" />
        </mxCell>
        <mxCell id="TlEoQkKG3fts3dp7izwv-6" value="WRITE" style="rhombus;whiteSpace=wrap;html=1;strokeWidth=1;fillColor=#99FFFF;" vertex="1" parent="1">
          <mxGeometry x="90" y="270" width="150" height="80" as="geometry" />
        </mxCell>
        <mxCell id="TlEoQkKG3fts3dp7izwv-8" value="" style="endArrow=none;html=1;rounded=0;exitX=0.5;exitY=1;exitDx=0;exitDy=0;entryX=0.5;entryY=0;entryDx=0;entryDy=0;strokeWidth=2;" edge="1" parent="1" source="TlEoQkKG3fts3dp7izwv-2" target="TlEoQkKG3fts3dp7izwv-6">
          <mxGeometry relative="1" as="geometry">
            <mxPoint x="340" y="470" as="sourcePoint" />
            <mxPoint x="500" y="470" as="targetPoint" />
          </mxGeometry>
        </mxCell>
        <mxCell id="TlEoQkKG3fts3dp7izwv-10" value="1 : N" style="text;strokeColor=none;fillColor=none;spacingLeft=4;spacingRight=4;overflow=hidden;rotatable=0;points=[[0,0.5],[1,0.5]];portConstraint=eastwest;fontSize=12;strokeWidth=1;" vertex="1" parent="1">
          <mxGeometry x="225" y="375" width="40" height="30" as="geometry" />
        </mxCell>
        <mxCell id="TlEoQkKG3fts3dp7izwv-12" value="" style="endArrow=none;html=1;rounded=0;strokeWidth=2;exitX=0.5;exitY=1;exitDx=0;exitDy=0;entryX=0;entryY=0.5;entryDx=0;entryDy=0;" edge="1" parent="1" source="TlEoQkKG3fts3dp7izwv-6" target="TlEoQkKG3fts3dp7izwv-10">
          <mxGeometry relative="1" as="geometry">
            <mxPoint x="340" y="470" as="sourcePoint" />
            <mxPoint x="500" y="470" as="targetPoint" />
            <Array as="points">
              <mxPoint x="165" y="390" />
            </Array>
          </mxGeometry>
        </mxCell>
        <mxCell id="TlEoQkKG3fts3dp7izwv-13" value="" style="endArrow=none;html=1;rounded=0;strokeWidth=2;" edge="1" parent="1">
          <mxGeometry relative="1" as="geometry">
            <mxPoint x="260" y="389.5" as="sourcePoint" />
            <mxPoint x="350" y="390" as="targetPoint" />
          </mxGeometry>
        </mxCell>
        <mxCell id="TlEoQkKG3fts3dp7izwv-14" value="HAVE" style="rhombus;whiteSpace=wrap;html=1;strokeWidth=1;fillColor=#99FFFF;" vertex="1" parent="1">
          <mxGeometry x="600" y="270" width="150" height="80" as="geometry" />
        </mxCell>
        <mxCell id="TlEoQkKG3fts3dp7izwv-16" value="1 : N" style="text;strokeColor=none;fillColor=none;spacingLeft=4;spacingRight=4;overflow=hidden;rotatable=0;points=[[0,0.5],[1,0.5]];portConstraint=eastwest;fontSize=12;strokeWidth=1;" vertex="1" parent="1">
          <mxGeometry x="530" y="375" width="40" height="30" as="geometry" />
        </mxCell>
        <mxCell id="TlEoQkKG3fts3dp7izwv-24" value="" style="endArrow=none;html=1;rounded=0;strokeWidth=2;exitX=1;exitY=0.5;exitDx=0;exitDy=0;entryX=0;entryY=0.5;entryDx=0;entryDy=0;" edge="1" parent="1" source="TlEoQkKG3fts3dp7izwv-1" target="TlEoQkKG3fts3dp7izwv-16">
          <mxGeometry relative="1" as="geometry">
            <mxPoint x="340" y="470" as="sourcePoint" />
            <mxPoint x="500" y="470" as="targetPoint" />
          </mxGeometry>
        </mxCell>
        <mxCell id="TlEoQkKG3fts3dp7izwv-25" value="" style="endArrow=none;html=1;rounded=0;strokeWidth=2;exitX=1;exitY=0.5;exitDx=0;exitDy=0;entryX=0.5;entryY=1;entryDx=0;entryDy=0;" edge="1" parent="1" source="TlEoQkKG3fts3dp7izwv-16" target="TlEoQkKG3fts3dp7izwv-14">
          <mxGeometry relative="1" as="geometry">
            <mxPoint x="340" y="470" as="sourcePoint" />
            <mxPoint x="500" y="470" as="targetPoint" />
            <Array as="points">
              <mxPoint x="675" y="390" />
            </Array>
          </mxGeometry>
        </mxCell>
        <mxCell id="TlEoQkKG3fts3dp7izwv-26" value="1 : N" style="text;strokeColor=none;fillColor=none;spacingLeft=4;spacingRight=4;overflow=hidden;rotatable=0;points=[[0,0.5],[1,0.5]];portConstraint=eastwest;fontSize=12;strokeWidth=1;" vertex="1" parent="1">
          <mxGeometry x="410" y="120" width="40" height="30" as="geometry" />
        </mxCell>
        <mxCell id="TlEoQkKG3fts3dp7izwv-33" value="" style="endArrow=none;html=1;rounded=0;strokeWidth=2;entryX=0;entryY=0.5;entryDx=0;entryDy=0;exitX=1;exitY=0.5;exitDx=0;exitDy=0;" edge="1" parent="1" source="TlEoQkKG3fts3dp7izwv-2" target="TlEoQkKG3fts3dp7izwv-26">
          <mxGeometry relative="1" as="geometry">
            <mxPoint x="225" y="129.5" as="sourcePoint" />
            <mxPoint x="385" y="129.5" as="targetPoint" />
          </mxGeometry>
        </mxCell>
        <mxCell id="TlEoQkKG3fts3dp7izwv-34" value="" style="endArrow=none;html=1;rounded=0;strokeWidth=2;exitX=1;exitY=0.5;exitDx=0;exitDy=0;" edge="1" parent="1">
          <mxGeometry relative="1" as="geometry">
            <mxPoint x="445" y="134.5" as="sourcePoint" />
            <mxPoint x="615" y="135" as="targetPoint" />
          </mxGeometry>
        </mxCell>
        <mxCell id="TlEoQkKG3fts3dp7izwv-35" value="" style="endArrow=none;html=1;rounded=0;strokeWidth=2;exitX=0.5;exitY=1;exitDx=0;exitDy=0;" edge="1" parent="1" source="TlEoQkKG3fts3dp7izwv-3" target="TlEoQkKG3fts3dp7izwv-14">
          <mxGeometry relative="1" as="geometry">
            <mxPoint x="560" y="230" as="sourcePoint" />
            <mxPoint x="745" y="230" as="targetPoint" />
          </mxGeometry>
        </mxCell>
        <mxCell id="TlEoQkKG3fts3dp7izwv-36" value="WRITE" style="rhombus;whiteSpace=wrap;html=1;strokeWidth=1;fillColor=#99FFFF;" vertex="1" parent="1">
          <mxGeometry x="350" y="95" width="150" height="80" as="geometry" />
        </mxCell>
        <mxCell id="TlEoQkKG3fts3dp7izwv-37" value="1 : N" style="text;strokeColor=none;fillColor=none;spacingLeft=4;spacingRight=4;overflow=hidden;rotatable=0;points=[[0,0.5],[1,0.5]];portConstraint=eastwest;fontSize=12;strokeWidth=1;" vertex="1" parent="1">
          <mxGeometry x="405" y="175" width="40" height="30" as="geometry" />
        </mxCell>
        <mxCell id="TlEoQkKG3fts3dp7izwv-38" value="HAVE" style="rhombus;whiteSpace=wrap;html=1;strokeWidth=1;fillColor=#99FFFF;" vertex="1" parent="1">
          <mxGeometry x="90" y="430" width="150" height="80" as="geometry" />
        </mxCell>
        <mxCell id="TlEoQkKG3fts3dp7izwv-39" value="" style="endArrow=none;html=1;rounded=0;strokeWidth=2;exitX=1;exitY=0.5;exitDx=0;exitDy=0;entryX=0.25;entryY=1;entryDx=0;entryDy=0;" edge="1" parent="1" source="TlEoQkKG3fts3dp7izwv-38" target="TlEoQkKG3fts3dp7izwv-1">
          <mxGeometry relative="1" as="geometry">
            <mxPoint x="350" y="410" as="sourcePoint" />
            <mxPoint x="510" y="410" as="targetPoint" />
            <Array as="points">
              <mxPoint x="380" y="470" />
            </Array>
          </mxGeometry>
        </mxCell>
        <mxCell id="TlEoQkKG3fts3dp7izwv-40" value="" style="endArrow=none;html=1;rounded=0;strokeWidth=2;exitX=0.5;exitY=1;exitDx=0;exitDy=0;entryX=0.5;entryY=0;entryDx=0;entryDy=0;" edge="1" parent="1" source="TlEoQkKG3fts3dp7izwv-38" target="TlEoQkKG3fts3dp7izwv-4">
          <mxGeometry relative="1" as="geometry">
            <mxPoint x="350" y="410" as="sourcePoint" />
            <mxPoint x="510" y="410" as="targetPoint" />
          </mxGeometry>
        </mxCell>
        <mxCell id="TlEoQkKG3fts3dp7izwv-41" value="HAVE" style="rhombus;whiteSpace=wrap;html=1;strokeWidth=1;fillColor=#99FFFF;" vertex="1" parent="1">
          <mxGeometry x="600" y="430" width="150" height="80" as="geometry" />
        </mxCell>
        <mxCell id="TlEoQkKG3fts3dp7izwv-42" value="" style="endArrow=none;html=1;rounded=0;strokeWidth=2;exitX=0.75;exitY=1;exitDx=0;exitDy=0;entryX=0;entryY=0.5;entryDx=0;entryDy=0;" edge="1" parent="1" source="TlEoQkKG3fts3dp7izwv-1" target="TlEoQkKG3fts3dp7izwv-41">
          <mxGeometry relative="1" as="geometry">
            <mxPoint x="350" y="410" as="sourcePoint" />
            <mxPoint x="510" y="410" as="targetPoint" />
            <Array as="points">
              <mxPoint x="440" y="470" />
            </Array>
          </mxGeometry>
        </mxCell>
        <mxCell id="TlEoQkKG3fts3dp7izwv-43" value="" style="endArrow=none;html=1;rounded=0;strokeWidth=2;exitX=0.5;exitY=1;exitDx=0;exitDy=0;entryX=0.5;entryY=0;entryDx=0;entryDy=0;" edge="1" parent="1" source="TlEoQkKG3fts3dp7izwv-41" target="TlEoQkKG3fts3dp7izwv-5">
          <mxGeometry relative="1" as="geometry">
            <mxPoint x="350" y="410" as="sourcePoint" />
            <mxPoint x="510" y="410" as="targetPoint" />
          </mxGeometry>
        </mxCell>
        <mxCell id="TlEoQkKG3fts3dp7izwv-44" value="1 : N" style="text;strokeColor=none;fillColor=none;spacingLeft=4;spacingRight=4;overflow=hidden;rotatable=0;points=[[0,0.5],[1,0.5]];portConstraint=eastwest;fontSize=12;strokeWidth=1;" vertex="1" parent="1">
          <mxGeometry x="170" y="510" width="40" height="30" as="geometry" />
        </mxCell>
        <mxCell id="TlEoQkKG3fts3dp7izwv-45" value="N : N" style="text;strokeColor=none;fillColor=none;spacingLeft=4;spacingRight=4;overflow=hidden;rotatable=0;points=[[0,0.5],[1,0.5]];portConstraint=eastwest;fontSize=12;strokeWidth=1;" vertex="1" parent="1">
          <mxGeometry x="690" y="510" width="40" height="30" as="geometry" />
        </mxCell>
      </root>
    </mxGraphModel>
  </diagram>
</mxfile>
